<svg xmlns="http://www.w3.org/2000/svg" xmlns:xlink="http://www.w3.org/1999/xlink" viewBox="0 0 2340 1080"><defs><style>.cls-1{fill:none;}.cls-2{fill:#edf8fc;}.cls-3{clip-path:url(#clip-path);}.cls-10,.cls-11,.cls-14,.cls-15,.cls-16,.cls-17,.cls-18,.cls-19,.cls-20,.cls-21,.cls-22,.cls-23,.cls-24,.cls-25,.cls-26,.cls-27,.cls-28,.cls-29,.cls-30,.cls-31,.cls-32,.cls-33,.cls-34,.cls-4,.cls-5,.cls-6,.cls-7,.cls-8,.cls-9{opacity:0.5;}.cls-5{fill:url(#linear-gradient);}.cls-6{fill:url(#linear-gradient-2);}.cls-7{fill:url(#linear-gradient-3);}.cls-8{fill:url(#linear-gradient-4);}.cls-9{fill:url(#linear-gradient-5);}.cls-10{fill:url(#linear-gradient-6);}.cls-11{fill:url(#linear-gradient-7);}.cls-12{clip-path:url(#clip-path-2);}.cls-13{clip-path:url(#clip-path-3);}.cls-14{fill:url(#linear-gradient-8);}.cls-15{fill:url(#linear-gradient-9);}.cls-16{fill:url(#linear-gradient-10);}.cls-17{fill:url(#linear-gradient-11);}.cls-18{fill:url(#linear-gradient-12);}.cls-19{fill:url(#linear-gradient-13);}.cls-20{fill:url(#linear-gradient-14);}.cls-21{fill:url(#linear-gradient-15);}.cls-22{fill:url(#linear-gradient-16);}.cls-23{fill:url(#linear-gradient-17);}.cls-24{fill:url(#linear-gradient-18);}.cls-25{fill:url(#linear-gradient-19);}.cls-26{fill:url(#linear-gradient-20);}.cls-27{fill:url(#linear-gradient-21);}.cls-28{fill:url(#linear-gradient-22);}.cls-29{fill:url(#linear-gradient-23);}.cls-30{fill:url(#linear-gradient-24);}.cls-31{fill:url(#linear-gradient-25);}.cls-32{fill:url(#linear-gradient-26);}.cls-33{fill:url(#linear-gradient-27);}.cls-34{fill:url(#linear-gradient-28);}.cls-35{fill:url(#linear-gradient-29);}</style><clipPath id="clip-path"><rect class="cls-1" y="352.58" width="605.92" height="727.42"/></clipPath><linearGradient id="linear-gradient" x1="1801.35" y1="837.03" x2="2348.05" y2="837.03" gradientTransform="matrix(1, 0, 0, -1, -1879.98, 1781.22)" gradientUnits="userSpaceOnUse"><stop offset="0" stop-color="#dbf1fb" stop-opacity="0"/><stop offset="0.21" stop-color="#dbf1fb" stop-opacity="0.01"/><stop offset="0.28" stop-color="#daf1fb" stop-opacity="0.04"/><stop offset="0.34" stop-color="#d9f0fa" stop-opacity="0.08"/><stop offset="0.38" stop-color="#d7f0fa" stop-opacity="0.15"/><stop offset="0.42" stop-color="#d5effa" stop-opacity="0.24"/><stop offset="0.45" stop-color="#d3eef9" stop-opacity="0.35"/><stop offset="0.48" stop-color="#cfedf8" stop-opacity="0.49"/><stop offset="0.51" stop-color="#ccebf7" stop-opacity="0.64"/><stop offset="0.53" stop-color="#c8eaf6" stop-opacity="0.81"/><stop offset="0.55" stop-color="#c3e8f5" stop-opacity="0.99"/><stop offset="0.55" stop-color="#c3e8f5"/></linearGradient><linearGradient id="linear-gradient-2" x1="1783.71" y1="779.3" x2="2330.41" y2="779.3" gradientTransform="matrix(1, 0, 0, -1, -1876.42, 1664.8)" xlink:href="#linear-gradient"/><linearGradient id="linear-gradient-3" x1="1766.07" y1="721.57" x2="2312.77" y2="721.57" gradientTransform="matrix(1, 0, 0, -1, -1872.87, 1548.38)" xlink:href="#linear-gradient"/><linearGradient id="linear-gradient-4" x1="1748.42" y1="663.85" x2="2295.13" y2="663.85" gradientTransform="matrix(1, 0, 0, -1, -1869.31, 1431.96)" xlink:href="#linear-gradient"/><linearGradient id="linear-gradient-5" x1="1730.78" y1="606.12" x2="2277.48" y2="606.12" gradientTransform="matrix(1, 0, 0, -1, -1865.76, 1315.53)" xlink:href="#linear-gradient"/><linearGradient id="linear-gradient-6" x1="1713.14" y1="548.39" x2="2259.84" y2="548.39" gradientTransform="matrix(1, 0, 0, -1, -1862.2, 1199.11)" xlink:href="#linear-gradient"/><linearGradient id="linear-gradient-7" x1="1695.5" y1="490.67" x2="2242.2" y2="490.67" gradientTransform="matrix(1, 0, 0, -1, -1858.65, 1082.69)" xlink:href="#linear-gradient"/><clipPath id="clip-path-2"><rect class="cls-1" x="1730.78" y="111.21" width="605.92" height="727.42"/></clipPath><clipPath id="clip-path-3"><circle class="cls-1" cx="2237.21" cy="247.07" r="212.24"/></clipPath><linearGradient id="linear-gradient-8" x1="609.21" y1="-92.88" x2="1504.23" y2="-92.88" gradientTransform="translate(3097.48 701.19) rotate(-149.51)" gradientUnits="userSpaceOnUse"><stop offset="0" stop-color="#dbf1fb" stop-opacity="0"/><stop offset="0.22" stop-color="#d9f0fa" stop-opacity="0.01"/><stop offset="0.3" stop-color="#d3edf9" stop-opacity="0.04"/><stop offset="0.35" stop-color="#c8e7f5" stop-opacity="0.1"/><stop offset="0.4" stop-color="#b9dff1" stop-opacity="0.19"/><stop offset="0.44" stop-color="#a5d5ea" stop-opacity="0.3"/><stop offset="0.47" stop-color="#8cc8e3" stop-opacity="0.44"/><stop offset="0.5" stop-color="#6eb9da" stop-opacity="0.61"/><stop offset="0.53" stop-color="#4da8cf" stop-opacity="0.79"/><stop offset="0.55" stop-color="#2895c4"/></linearGradient><linearGradient id="linear-gradient-9" x1="628.1" y1="-126.53" x2="1523.12" y2="-126.53" gradientTransform="matrix(-0.86, -0.51, 0.51, -0.86, 3147.63, 647.04)" xlink:href="#linear-gradient-8"/><linearGradient id="linear-gradient-10" x1="646.98" y1="-160.18" x2="1542" y2="-160.18" gradientTransform="translate(3197.79 592.89) rotate(-149.51)" xlink:href="#linear-gradient-8"/><linearGradient id="linear-gradient-11" x1="665.87" y1="-193.83" x2="1560.89" y2="-193.83" gradientTransform="matrix(-0.86, -0.51, 0.51, -0.86, 3247.94, 538.74)" xlink:href="#linear-gradient-8"/><linearGradient id="linear-gradient-12" x1="684.76" y1="-227.48" x2="1579.77" y2="-227.48" gradientTransform="translate(3298.09 484.6) rotate(-149.51)" xlink:href="#linear-gradient-8"/><linearGradient id="linear-gradient-13" x1="703.64" y1="-261.12" x2="1598.66" y2="-261.12" gradientTransform="translate(3348.24 430.45) rotate(-149.51)" xlink:href="#linear-gradient-8"/><linearGradient id="linear-gradient-14" x1="722.53" y1="-294.77" x2="1617.55" y2="-294.77" gradientTransform="matrix(-0.86, -0.51, 0.51, -0.86, 3398.4, 376.3)" xlink:href="#linear-gradient-8"/><linearGradient id="linear-gradient-15" x1="552.55" y1="98.73" x2="1447.57" y2="98.73" gradientTransform="translate(2906.53 1032.25) rotate(-149.51)" xlink:href="#linear-gradient-8"/><linearGradient id="linear-gradient-16" x1="571.44" y1="65.08" x2="1466.46" y2="65.08" gradientTransform="translate(2956.68 978.1) rotate(-149.51)" xlink:href="#linear-gradient-8"/><linearGradient id="linear-gradient-17" x1="590.33" y1="31.43" x2="1485.34" y2="31.43" gradientTransform="matrix(-0.86, -0.51, 0.51, -0.86, 3006.84, 923.96)" xlink:href="#linear-gradient-8"/><linearGradient id="linear-gradient-18" x1="609.21" y1="-2.22" x2="1504.23" y2="-2.22" gradientTransform="matrix(-0.86, -0.51, 0.51, -0.86, 3056.99, 869.81)" xlink:href="#linear-gradient-8"/><linearGradient id="linear-gradient-19" x1="628.1" y1="-35.87" x2="1523.12" y2="-35.87" gradientTransform="matrix(-0.86, -0.51, 0.51, -0.86, 3107.14, 815.66)" xlink:href="#linear-gradient-8"/><linearGradient id="linear-gradient-20" x1="646.98" y1="-69.51" x2="1542" y2="-69.51" gradientTransform="matrix(-0.86, -0.51, 0.51, -0.86, 3157.3, 761.51)" xlink:href="#linear-gradient-8"/><linearGradient id="linear-gradient-21" x1="665.87" y1="-103.16" x2="1560.89" y2="-103.16" gradientTransform="translate(3207.45 707.37) rotate(-149.51)" xlink:href="#linear-gradient-8"/><linearGradient id="linear-gradient-22" x1="492.98" y1="291.37" x2="1388" y2="291.37" gradientTransform="translate(2709.7 1363.93) rotate(-149.51)" xlink:href="#linear-gradient-8"/><linearGradient id="linear-gradient-23" x1="511.86" y1="257.72" x2="1406.88" y2="257.72" gradientTransform="translate(2759.85 1309.78) rotate(-149.51)" xlink:href="#linear-gradient-8"/><linearGradient id="linear-gradient-24" x1="530.75" y1="224.07" x2="1425.77" y2="224.07" gradientTransform="matrix(-0.86, -0.51, 0.51, -0.86, 2810, 1255.64)" xlink:href="#linear-gradient-8"/><linearGradient id="linear-gradient-25" x1="549.64" y1="190.42" x2="1444.65" y2="190.42" gradientTransform="translate(2860.15 1201.49) rotate(-149.51)" xlink:href="#linear-gradient-8"/><linearGradient id="linear-gradient-26" x1="568.52" y1="156.77" x2="1463.54" y2="156.77" gradientTransform="translate(2910.31 1147.34) rotate(-149.51)" xlink:href="#linear-gradient-8"/><linearGradient id="linear-gradient-27" x1="587.41" y1="123.13" x2="1482.43" y2="123.13" gradientTransform="translate(2960.46 1093.19) rotate(-149.51)" xlink:href="#linear-gradient-8"/><linearGradient id="linear-gradient-28" x1="606.29" y1="89.48" x2="1501.31" y2="89.48" gradientTransform="translate(3010.61 1039.05) rotate(-149.51)" xlink:href="#linear-gradient-8"/><linearGradient id="linear-gradient-29" x1="-0.17" y1="71.17" x2="2340.1" y2="76.89" gradientUnits="userSpaceOnUse"><stop offset="0" stop-color="#dbf1fb"/><stop offset="0.21" stop-color="#d8effa"/><stop offset="0.38" stop-color="#cee9f8"/><stop offset="0.54" stop-color="#bcdff4"/><stop offset="0.68" stop-color="#a4d2ee"/><stop offset="0.83" stop-color="#85c0e6"/><stop offset="0.97" stop-color="#5faadd"/><stop offset="1" stop-color="#55a4db"/></linearGradient></defs><g id="Layer_2" data-name="Layer 2"><g id="Layer_1-2" data-name="Layer 1"><rect class="cls-2" x="0.49" y="0.39" width="2339.2" height="1079.61" transform="translate(2340.17 1080.39) rotate(-180)"/><text/><text/><text/><text/><g class="cls-3"><g class="cls-4"><rect class="cls-5" x="-78.63" y="930.89" width="546.7" height="26.61" transform="translate(841.59 1659.03) rotate(149.51)"/><rect class="cls-6" x="-92.72" y="872.19" width="546.7" height="26.61" transform="matrix(-0.86, 0.51, -0.51, -0.86, 785.58, 1556.9)"/><rect class="cls-7" x="-106.8" y="813.5" width="546.7" height="26.61" transform="translate(729.57 1454.77) rotate(149.51)"/><rect class="cls-8" x="-120.89" y="754.8" width="546.7" height="26.61" transform="translate(673.57 1352.65) rotate(149.51)"/><rect class="cls-9" x="-134.98" y="696.11" width="546.7" height="26.61" transform="translate(617.56 1250.52) rotate(149.51)"/><rect class="cls-10" x="-149.06" y="637.41" width="546.7" height="26.61" transform="matrix(-0.86, 0.51, -0.51, -0.86, 561.55, 1148.39)"/><rect class="cls-11" x="-163.15" y="578.72" width="546.7" height="26.61" transform="translate(505.54 1046.26) rotate(149.51)"/></g></g><g class="cls-12"><g class="cls-4"><g class="cls-13"><g class="cls-4"><rect class="cls-14" x="1623.07" y="240.59" width="1033.37" height="8.95" transform="translate(4051.16 -747.48) rotate(146.03)"/><rect class="cls-15" x="1639.88" y="205.85" width="1033.37" height="8.95" transform="matrix(-0.83, 0.56, -0.56, -0.83, 4062.5, -820.41)"/><rect class="cls-16" x="1656.68" y="171.12" width="1033.37" height="8.95" transform="translate(4073.83 -893.34) rotate(146.03)"/><rect class="cls-17" x="1673.49" y="136.38" width="1033.37" height="8.95" transform="translate(4085.16 -966.27) rotate(146.03)"/><rect class="cls-18" x="1690.29" y="101.65" width="1033.37" height="8.95" transform="translate(4096.49 -1039.2) rotate(146.03)"/><rect class="cls-19" x="1707.1" y="66.91" width="1033.37" height="8.95" transform="translate(4107.82 -1112.13) rotate(146.03)"/><rect class="cls-20" x="1723.9" y="32.18" width="1033.37" height="8.95" transform="translate(4119.15 -1185.06) rotate(146.03)"/></g><g class="cls-4"><rect class="cls-21" x="1578.17" y="435.29" width="1033.37" height="8.95" transform="translate(4077.82 -366.22) rotate(146.03)"/><rect class="cls-22" x="1594.97" y="400.55" width="1033.37" height="8.95" transform="translate(4089.16 -439.15) rotate(146.03)"/><rect class="cls-23" x="1611.78" y="365.82" width="1033.37" height="8.95" transform="translate(4100.49 -512.08) rotate(146.03)"/><rect class="cls-24" x="1628.58" y="331.08" width="1033.37" height="8.95" transform="translate(4111.82 -585.01) rotate(146.03)"/><rect class="cls-25" x="1645.39" y="296.35" width="1033.37" height="8.95" transform="translate(4123.15 -657.94) rotate(146.03)"/><rect class="cls-26" x="1662.19" y="261.61" width="1033.37" height="8.95" transform="translate(4134.48 -730.87) rotate(146.03)"/><rect class="cls-27" x="1679" y="226.88" width="1033.37" height="8.95" transform="translate(4145.81 -803.8) rotate(146.03)"/></g><g class="cls-4"><rect class="cls-28" x="1530.41" y="631.19" width="1033.37" height="8.95" transform="translate(4099.94 18.83) rotate(146.03)"/><rect class="cls-29" x="1547.22" y="596.46" width="1033.37" height="8.95" transform="translate(4111.28 -54.1) rotate(146.03)"/><rect class="cls-30" x="1564.02" y="561.72" width="1033.37" height="8.95" transform="translate(4122.61 -127.03) rotate(146.03)"/><rect class="cls-31" x="1580.83" y="526.99" width="1033.37" height="8.95" transform="translate(4133.94 -199.96) rotate(146.03)"/><rect class="cls-32" x="1597.63" y="492.25" width="1033.37" height="8.95" transform="translate(4145.27 -272.89) rotate(146.03)"/><rect class="cls-33" x="1614.44" y="457.52" width="1033.37" height="8.95" transform="translate(4156.6 -345.82) rotate(146.03)"/><rect class="cls-34" x="1631.24" y="422.78" width="1033.37" height="8.95" transform="translate(4167.93 -418.75) rotate(146.03)"/></g></g></g></g><path class="cls-35" d="M0,116.57S366,12.13,1170,102.48s1093.81,35.73,1170,13.83V0H0Z"/></g></g></svg>