<svg xmlns="http://www.w3.org/2000/svg" xmlns:xlink="http://www.w3.org/1999/xlink" viewBox="0 0 652.32 715.68"><defs><style>.cls-1{fill:#16a4dc;opacity:0.3;filter:url(#filter);}.cls-2{fill:#dbf1fb;opacity:0.9;}.cls-3{opacity:0.8;fill:url(#Áåçûìÿííûé_ãðàäèåíò_107);filter:url(#filter-2);}</style><filter id="filter" x="0" y="0" width="652.32" height="715.68" filterUnits="userSpaceOnUse"><feOffset dx="7" dy="7" input="SourceAlpha"/><feGaussianBlur stdDeviation="5" result="blur"/><feFlood/><feComposite operator="in" in2="blur"/><feComposite in="SourceGraphic"/></filter><linearGradient id="Áåçûìÿííûé_ãðàäèåíò_107" x1="201.37" y1="603.12" x2="437.08" y2="603.12" gradientUnits="userSpaceOnUse"><stop offset="0" stop-color="#198dc2"/><stop offset="1" stop-color="#0bc0e8"/></linearGradient><filter id="filter-2" x="199.8" y="567.96" width="241.68" height="72.96" filterUnits="userSpaceOnUse"><feOffset dx="1.35" dy="1.35" input="SourceAlpha"/><feGaussianBlur stdDeviation="0.96" result="blur-2"/><feFlood/><feComposite operator="in" in2="blur-2"/><feComposite in="SourceGraphic"/></filter></defs><g id="Layer_2" data-name="Layer 2"><g id="Layer_1-2" data-name="Layer 1"><rect class="cls-1" x="8.14" y="8.05" width="622.17" height="685.49" rx="33.45"/><path class="cls-2" d="M83.77,162.71H588.12a0,0,0,0,1,0,0v33.45a33.45,33.45,0,0,1-33.45,33.45H83.77a33.45,33.45,0,0,1-33.45-33.45v0a33.45,33.45,0,0,1,33.45-33.45Z"/><path class="cls-2" d="M83.77,262.05H588.12a0,0,0,0,1,0,0V295.5A33.45,33.45,0,0,1,554.67,329H83.77A33.45,33.45,0,0,1,50.33,295.5v0a33.45,33.45,0,0,1,33.45-33.45Z"/><rect class="cls-3" x="201.37" y="569.67" width="235.71" height="66.9" rx="33.45"/><path class="cls-2" d="M83.77,363.67H588.12a0,0,0,0,1,0,0v121.7a33.45,33.45,0,0,1-33.45,33.45H83.77a33.45,33.45,0,0,1-33.45-33.45V397.12a33.45,33.45,0,0,1,33.45-33.45Z"/></g></g></svg>