<svg xmlns="http://www.w3.org/2000/svg" xmlns:xlink="http://www.w3.org/1999/xlink" viewBox="0 0 248.81 248.81"><defs><style>.cls-1{fill:#204282;}.cls-2{fill:#fff;}.cls-3{fill:url(#linear-gradient);}</style><linearGradient id="linear-gradient" x1="1910.08" y1="-298.19" x2="2158.9" y2="-298.19" gradientTransform="translate(508.16 2144.5) rotate(-92.42)" gradientUnits="userSpaceOnUse"><stop offset="0" stop-color="#dbf1fb" stop-opacity="0"/><stop offset="0" stop-color="#d7ecf9" stop-opacity="0.03"/><stop offset="0.27" stop-color="#afd4ed" stop-opacity="0.27"/><stop offset="0.89" stop-color="#4c97d0" stop-opacity="0.88"/><stop offset="1" stop-color="#398ccb"/></linearGradient></defs><g id="Layer_2" data-name="Layer 2"><g id="Layer_1-2" data-name="Layer 1"><circle class="cls-1" cx="124.4" cy="124.4" r="89.12"/><path class="cls-2" d="M151,124.34c0,14-.07,28,0,42,0,4-2.65,6.18-6.13,6.16-13.72-.1-27.44,0-41.16,0-3.85,0-5.94-2.08-5.94-5.91q0-42.2,0-84.37a5.64,5.64,0,0,1,5.89-5.87c13.84.13,27.68,0,41.52,0,3.82,0,5.81,2,5.81,5.85Q151,103.27,151,124.34Zm-26.6,18.36a18.35,18.35,0,1,0-18.32-18.38A18.29,18.29,0,0,0,124.39,142.7Zm0,27a5.9,5.9,0,1,0-5.86-5.86A5.79,5.79,0,0,0,124.39,169.74Zm0-85.85c2.24,0,4.48,0,6.71,0,1.28,0,1.91-.5,1.94-1.45s-.64-1.58-2-1.58q-6.7,0-13.42,0c-1.22,0-1.93.58-2,1.48s.71,1.54,2,1.55C119.94,83.9,122.18,83.89,124.41,83.89Z"/><path class="cls-2" d="M124.41,139.65a15.31,15.31,0,0,1-.07-30.62,15.31,15.31,0,1,1,.07,30.62Zm-3.91-25c-1.27,0-1.77.56-1.78,1.86,0,3.11,0,6.23,0,9.34,0,2.2,0,4.4,0,6.59,0,1.48,1,2,2.36,1.38.25-.12.5-.24.74-.38q6.36-3.69,12.72-7.38c2-1.16,2-2.29,0-3.44q-6.37-3.68-12.75-7.35C121.29,115,120.77,114.79,120.5,114.65Z"/><path class="cls-2" d="M124.42,166.72a2.87,2.87,0,0,1-2.85-2.81,2.9,2.9,0,0,1,2.82-3,2.89,2.89,0,0,1,0,5.78Z"/><path class="cls-2" d="M131.44,124.38l-9.58,5.53V118.85Z"/><path class="cls-3" d="M3.19,96.55A124.37,124.37,0,1,0,152.26,3.19,124.37,124.37,0,0,0,3.19,96.55Zm227.58,52.29A109.14,109.14,0,1,1,148.84,18,109.15,109.15,0,0,1,230.77,148.84Z"/></g></g></svg>