<svg xmlns="http://www.w3.org/2000/svg" xmlns:xlink="http://www.w3.org/1999/xlink" viewBox="0 0 248.81 248.81"><defs><style>.cls-1{fill:#1f4283;}.cls-2{fill:#fff;}.cls-3{fill:url(#linear-gradient);}</style><linearGradient id="linear-gradient" x1="1397.77" y1="192.95" x2="1646.58" y2="192.95" gradientTransform="translate(-4.15 1653.36) rotate(-92.42)" gradientUnits="userSpaceOnUse"><stop offset="0" stop-color="#dbf1fb" stop-opacity="0"/><stop offset="0" stop-color="#d7ecf9" stop-opacity="0.03"/><stop offset="0.27" stop-color="#afd4ed" stop-opacity="0.27"/><stop offset="0.89" stop-color="#4c97d0" stop-opacity="0.88"/><stop offset="1" stop-color="#398ccb"/></linearGradient></defs><g id="Layer_2" data-name="Layer 2"><g id="Layer_1-2" data-name="Layer 1"><circle class="cls-1" cx="124.4" cy="124.4" r="89.12"/><path class="cls-2" d="M104.87,85.36A9.92,9.92,0,0,1,122.68,85a4.66,4.66,0,0,1,.56,2.16c.05,5.87,0,11.75,0,17.63,0,.32,0,.63,0,.76a43.68,43.68,0,0,0-5.2-.22,8.21,8.21,0,0,0-2.88,1.07,1.32,1.32,0,0,0-.59,2c.5.89,1.25.82,2.06.36a5.31,5.31,0,0,1,6.06.27,1.54,1.54,0,0,1,.57,1c0,4.48,0,9,0,13.43,0,.07-.07.14,0-.07-2,0-3.93-.15-5.8,0a6.32,6.32,0,0,0-2.39,1,1.4,1.4,0,1,0,1.45,2.38,5.55,5.55,0,0,1,5.17-.4,2.22,2.22,0,0,1,1.6,2.34c0,11.12-.07,22.23,0,33.35,0,2.33-1.14,3.83-2.72,5.19a8.85,8.85,0,0,1-9.89.89,2,2,0,0,1-.39-.36,8.3,8.3,0,0,0,2.61-7.4,6.28,6.28,0,0,0-.91-2.56,1.81,1.81,0,0,0-1.69-.47,1.77,1.77,0,0,0-.7,1.59c2,4.41-1.3,7.88-5.24,8.83a8.92,8.92,0,0,1-11-7.47c-.1-.79.07-1.14.85-1.38a12.32,12.32,0,0,0,6-3.42,8.12,8.12,0,0,0,1.35-2.49,1.27,1.27,0,0,0-.91-1.7A1.31,1.31,0,0,0,99,152a8.87,8.87,0,0,1-14.73,1.15,10,10,0,0,1-.15-13.1c1.13-1.45.81-2.42-.94-2.86a9,9,0,0,1-6.72-7.47,9.18,9.18,0,0,1,5.07-9.39,5.53,5.53,0,0,1,6.22,1,9.05,9.05,0,0,1,.89,1,1.31,1.31,0,0,0,2,.29,1.39,1.39,0,0,0,.21-2A8.35,8.35,0,0,0,82,117.21c-1.7.38-1.7.38-2.2-1.29a10.13,10.13,0,0,1,5.82-12.45,1.27,1.27,0,0,1,1.73.42A6.26,6.26,0,0,0,94,106.13c1.16-.28,1.74-1,1.43-1.95s-1.1-1.07-2-.84A3.63,3.63,0,0,1,88.84,101a9.76,9.76,0,0,1,1.63-10.76A9.59,9.59,0,0,1,100.19,87a20.55,20.55,0,0,1,4,1.32c2.33,1,3.62,3.54,3.44,6.45,0,.4-.07.8-.12,1.19-.12,1,.26,1.71,1.29,1.78s1.37-.54,1.53-1.47c.71-4.19-.8-8.53-4.87-10.53A5.23,5.23,0,0,1,104.87,85.36Zm-13,48.15a8.39,8.39,0,0,0,6.23,8.39c.9.21,1.7.18,2.08-.84.3-.83-.24-1.46-1.33-1.92a9.42,9.42,0,0,1-2.54-1.47,5.26,5.26,0,0,1-1.55-4.83c.12-1-.1-1.71-1.17-1.85s-1.52.52-1.63,1.49C91.91,132.92,91.88,133.35,91.87,133.51Zm20.73,6.94a9.73,9.73,0,0,0,1.08,0c.92-.11,1.52-.57,1.42-1.57s-.67-1.26-1.57-1.27c-3.65,0-5.15-1.17-6.27-4.82-.26-.85-.76-1.35-1.66-1.15a1.4,1.4,0,0,0-1.09,1.82A8.35,8.35,0,0,0,112.6,140.45ZM106.8,118c.51-.36,1.08-.56,1.26-.94a1.77,1.77,0,0,0-.09-1.44c-2.13-3.64-7.76-4.9-11.31-2.57-.79.53-1.22,1.22-.68,2.12s1.29.76,2.09.36c3-1.48,5.29-1,7.47,1.48A9.56,9.56,0,0,0,106.8,118Z"/><path class="cls-2" d="M136.17,115.54c3,0,6,0,9,0a2,2,0,0,0,1.73-.79c2.19-2.59,4.39-5.18,6.69-7.67a3.62,3.62,0,0,1,2.17-1c1.54-.16,3.11,0,4.67-.09a1.91,1.91,0,0,0,1.27-.76,5.73,5.73,0,0,1,10.66,1.93,5.75,5.75,0,0,1-3.42,6.12c-2.28,1-5.28.5-6.54-1.59-.91-1.51-2-1.66-3.51-1.67a4.44,4.44,0,0,0-4,1.66c-1.84,2.35-3.91,4.53-5.85,6.81a3.17,3.17,0,0,1-2.61,1.17c-6.48,0-12.95,0-19.42,0-1.06,0-1.37-.29-1.35-1.35,0-2.79,0-2.79,2.76-2.79Z"/><path class="cls-2" d="M136.8,129.21c3.24,0,6.48,0,9.72,0a3,3,0,0,1,2.48,1.15q3.28,3.89,6.72,7.65a3.42,3.42,0,0,0,1.61.74,8.5,8.5,0,0,0,1.43,0,3.34,3.34,0,0,0,3.64-1.64c1.31-2.1,4.16-2.58,6.57-1.59a5.7,5.7,0,0,1-.83,10.77,5.52,5.52,0,0,1-6.23-2.48,1.72,1.72,0,0,0-1.79-1c-1.32.07-2.64,0-4,0a3.3,3.3,0,0,1-2.81-1.29c-2.07-2.43-4.22-4.8-6.26-7.25a2.67,2.67,0,0,0-2.34-1.06c-5.88,0-11.75,0-17.63.05-1.12,0-1.54-.26-1.5-1.45.08-2.64,0-2.64,2.67-2.64Z"/><path class="cls-2" d="M136.05,111c-3.11,0-6.23,0-9.35,0-.75,0-1-.18-1.07-1-.08-3.12-.11-3.12,3-3.12,5,0,10.07,0,15.11,0a1.94,1.94,0,0,0,1.84-.84,8,8,0,0,1,1.56-1.81c2.57-2,2-4.72,2-7.34,0-.3-.45-.68-.78-.88a5.71,5.71,0,0,1-2.53-6.74,5.73,5.73,0,0,1,11.09.94A5.55,5.55,0,0,1,154.12,96a1.39,1.39,0,0,0-.84,1.5c0,1.56.08,3.12,0,4.67a3.78,3.78,0,0,1-.7,2c-1.64,2-3.32,4-5.11,5.88a3.45,3.45,0,0,1-2.16,1C142.22,111.08,139.13,111,136.05,111Z"/><path class="cls-2" d="M125.82,141.81a2.18,2.18,0,0,1-.14-.34c-.35-3.63-.35-3.63,3.29-3.63,5.36,0,10.71,0,16.07,0a3.37,3.37,0,0,1,2.81,1.27c1.6,1.9,3.25,3.74,4.78,5.69a3.72,3.72,0,0,1,.63,2c.09,1.51.07,3,0,4.55a1.42,1.42,0,0,0,.85,1.48,5.63,5.63,0,0,1,2.23,7.48,5.71,5.71,0,0,1-10.63-4,5.47,5.47,0,0,1,2.73-3.49c.6-.32.63-.73.75-1.3.91-4.08-1.59-6.64-4.06-9.2a2.28,2.28,0,0,0-1.44-.34c-5.47,0-10.95,0-16.42,0C126.77,141.9,126.27,141.84,125.82,141.81Z"/><path class="cls-2" d="M125.83,100.87c-.1-.25-.12-.28-.13-.32-.42-3.74-.42-3.74,3.27-3.74a6.46,6.46,0,0,1,1.32,0c1.54.35,2.16-.72,2.66-1.8a1.82,1.82,0,0,0-.25-1.28,5.74,5.74,0,0,1,6.06-8.26,5.73,5.73,0,0,1-1,11.37,1.66,1.66,0,0,0-1.79,1,8.33,8.33,0,0,1-1.2,1.93,2.76,2.76,0,0,1-1.53,1c-1.91.13-3.83.08-5.75.09Z"/><path class="cls-2" d="M129.78,147.94H130c5,0,3.8-.31,6.25,3.37a1.85,1.85,0,0,0,1.32.65,5.75,5.75,0,1,1-5,3.34,2.12,2.12,0,0,0-2-3.25h-4.07c-1.45,0-.93-1.16-.84-1.74.13-.8-.88-2.17.84-2.35A31.6,31.6,0,0,1,129.78,147.94Z"/><path class="cls-3" d="M3.19,96.55A124.37,124.37,0,1,0,152.26,3.19,124.37,124.37,0,0,0,3.19,96.55Zm227.58,52.29A109.14,109.14,0,1,1,148.84,18,109.15,109.15,0,0,1,230.77,148.84Z"/></g></g></svg>