<svg xmlns="http://www.w3.org/2000/svg" xmlns:xlink="http://www.w3.org/1999/xlink" viewBox="0 0 248.81 248.81"><defs><style>.cls-1{fill:#1d4484;}.cls-2{fill:url(#linear-gradient);}.cls-3{fill:#fff;}</style><linearGradient id="linear-gradient" x1="2063.53" y1="-1163.66" x2="2312.35" y2="-1163.66" gradientTransform="translate(1379.34 2261.3) rotate(-92.42)" gradientUnits="userSpaceOnUse"><stop offset="0" stop-color="#dbf1fb" stop-opacity="0"/><stop offset="0" stop-color="#d7ecf9" stop-opacity="0.03"/><stop offset="0.27" stop-color="#afd4ed" stop-opacity="0.27"/><stop offset="0.89" stop-color="#4c97d0" stop-opacity="0.88"/><stop offset="1" stop-color="#398ccb"/></linearGradient></defs><g id="Layer_2" data-name="Layer 2"><g id="Layer_1-2" data-name="Layer 1"><circle class="cls-1" cx="124.4" cy="124.4" r="89.12"/><path class="cls-2" d="M3.19,96.55A124.37,124.37,0,1,0,152.26,3.19,124.37,124.37,0,0,0,3.19,96.55Zm227.58,52.29A109.14,109.14,0,1,1,148.84,18,109.15,109.15,0,0,1,230.77,148.84Z"/><path class="cls-3" d="M153.56,93.65c2,1.95,3.85,3.7,5.85,5.61L153.87,105c8.75,10,12.29,21.62,10,34.72A39,39,0,0,1,150,163.2,40.21,40.21,0,0,1,97.29,162a40.67,40.67,0,0,1-2.3-57.3l-5.34-5.49,5.72-5.78,6.06,5.92a42.39,42.39,0,0,1,18.82-6.75v-8h-7.66V76.36h23.93v8.17H129v7.76c3.33.86,6.64,1.49,9.77,2.6s5.95,2.68,9.21,4.19Zm-28.88,70.5a31.8,31.8,0,1,0-31.89-31.8A31.57,31.57,0,0,0,124.68,164.15Z"/><path class="cls-3" d="M96.48,132.33a28.11,28.11,0,1,1,27.94,28.18A27.94,27.94,0,0,1,96.48,132.33Zm42.77-14.21-.4-.42c-5.68,3.67-11.42,7.26-17,11-2.17,1.46-2.21,4.66-.4,6.58a4.49,4.49,0,0,0,6.77-.13,25.28,25.28,0,0,0,1.72-2.59Q134.58,125.35,139.25,118.12Z"/></g></g></svg>