<svg xmlns="http://www.w3.org/2000/svg" xmlns:xlink="http://www.w3.org/1999/xlink" viewBox="0 0 248.81 248.81"><defs><style>.cls-1{fill:#1c4685;}.cls-2{fill:url(#linear-gradient);}.cls-3{fill:#fff;}</style><linearGradient id="linear-gradient" x1="1038.9" y1="-181.39" x2="1287.72" y2="-181.39" gradientTransform="translate(354.71 1279.03) rotate(-92.42)" gradientUnits="userSpaceOnUse"><stop offset="0" stop-color="#dbf1fb" stop-opacity="0"/><stop offset="0" stop-color="#d7ecf9" stop-opacity="0.03"/><stop offset="0.27" stop-color="#afd4ed" stop-opacity="0.27"/><stop offset="0.89" stop-color="#4c97d0" stop-opacity="0.88"/><stop offset="1" stop-color="#398ccb"/></linearGradient></defs><g id="Layer_2" data-name="Layer 2"><g id="Layer_1-2" data-name="Layer 1"><circle class="cls-1" cx="124.4" cy="124.4" r="89.12"/><path class="cls-2" d="M3.19,96.55A124.37,124.37,0,1,0,152.26,3.19,124.37,124.37,0,0,0,3.19,96.55Zm227.58,52.29A109.14,109.14,0,1,1,148.84,18,109.15,109.15,0,0,1,230.77,148.84Z"/><path class="cls-3" d="M130.64,79.35v66.36c-1,0-1.88.12-2.73.12h-47a15.65,15.65,0,0,1-1.68,0,3.08,3.08,0,0,1-2.92-3c-.06-.63,0-1.28,0-1.92V84.07c0-.56,0-1.12,0-1.68a2.92,2.92,0,0,1,3-3c.47,0,1,0,1.44,0h49.89Zm-35.8,35.87c0,2.88-.07,5.76,0,8.64s2,3.91,4.41,2.53q7.14-4.17,14.17-8.52c2.44-1.51,2.43-3.48,0-5.06-1.6-1-3.28-2-4.93-3-3-1.81-6-3.64-9-5.42-1.67-1-2.85-1-3.7,0a4.8,4.8,0,0,0-.91,2.6C94.76,109.77,94.83,112.5,94.84,115.22Z"/><path class="cls-3" d="M145.16,163.51c1.11,0,2.14-.06,3.17,0,1.95.15,3.06,1.28,3,3s-1.1,2.77-3.11,2.92c-.56,0-1.12,0-1.68,0H102.24a15.55,15.55,0,0,1-2.16-.06,2.93,2.93,0,0,1-.08-5.82,31.34,31.34,0,0,1,3.78,0c.47-2.7.91-5.19,1.33-7.7.19-1.1.38-2.2.51-3.31a1.48,1.48,0,0,1,1.76-1.48c.48,0,1,0,1.44,0h32.12c1.94.06,2,.07,2.3,1.95.48,2.83.93,5.67,1.42,8.5C144.77,162.13,145,162.73,145.16,163.51Z"/><path class="cls-3" d="M139.81,145.68h-3.76c-.1-10.16,0-20.17-.05-30.09,2.11-.6,33.41-.72,36.29-.2a11.25,11.25,0,0,1,.24,1.52q0,12.59,0,25.16c0,2-.75,3.15-2.18,3.59a1.34,1.34,0,0,1-1.88-.89c-2.21-5.2-2.23-5.19-6.93-9.41a9.31,9.31,0,0,0,.74-8.17A8.51,8.51,0,0,0,149,123.62c-3.4,2.74-4.05,6.57-1.89,12A15.69,15.69,0,0,0,139.81,145.68Z"/><path class="cls-3" d="M147,99.68a15.75,15.75,0,0,0-7.17,10.07h-3.33c-.63-1.73-.78-27.29-.15-30.27.71,0,1.48-.13,2.26-.13h29.73c3.33,0,4.18.82,4.18,4.05q0,12.1,0,24.22c0,.63-.08,1.26-.14,2.13-.82.06-1.58.12-2.34.16a1.37,1.37,0,0,1-1.58-1.12,14.87,14.87,0,0,0-6.34-8.72,2.38,2.38,0,0,1-.44-.52c1.88-6.07,1.12-9.71-2.54-12.23a8.56,8.56,0,0,0-10.08.26C145.65,90.21,145,94,147,99.68Z"/><path class="cls-3" d="M145.64,145.57a8.88,8.88,0,0,1,9.06-6.52,8.6,8.6,0,0,1,8.17,6.41C161.17,145.92,148.44,146,145.64,145.57Z"/><path class="cls-3" d="M163,109.76H145.69c.78-3.84,3.94-6.31,8.18-6.49A8.59,8.59,0,0,1,163,109.76Z"/><path class="cls-3" d="M157.62,130.3a3.39,3.39,0,0,1-3.23,3.46,3.28,3.28,0,0,1-3.37-3.29,3.23,3.23,0,0,1,3.19-3.43A3.33,3.33,0,0,1,157.62,130.3Z"/><path class="cls-3" d="M154.29,91.12a3.33,3.33,0,0,1,3.33,3.35,3.41,3.41,0,0,1-3.31,3.37,3.33,3.33,0,0,1-3.3-3.36A3.26,3.26,0,0,1,154.29,91.12Z"/><path class="cls-3" d="M100.37,119.47v-7.7c1.6.13,4.24,1.58,6.66,3.7A72.84,72.84,0,0,1,100.37,119.47Z"/></g></g></svg>