<svg xmlns="http://www.w3.org/2000/svg" xmlns:xlink="http://www.w3.org/1999/xlink" viewBox="0 0 248.81 248.81"><defs><style>.cls-1{fill:#1c4584;}.cls-2{fill:url(#linear-gradient);}.cls-3{fill:#fff;}</style><linearGradient id="linear-gradient" x1="1551.22" y1="-672.52" x2="1800.03" y2="-672.52" gradientTransform="translate(867.02 1770.16) rotate(-92.42)" gradientUnits="userSpaceOnUse"><stop offset="0" stop-color="#dbf1fb" stop-opacity="0"/><stop offset="0" stop-color="#d7ecf9" stop-opacity="0.03"/><stop offset="0.27" stop-color="#afd4ed" stop-opacity="0.27"/><stop offset="0.89" stop-color="#4c97d0" stop-opacity="0.88"/><stop offset="1" stop-color="#398ccb"/></linearGradient></defs><g id="Layer_2" data-name="Layer 2"><g id="Layer_1-2" data-name="Layer 1"><circle class="cls-1" cx="124.4" cy="124.4" r="89.12"/><path class="cls-2" d="M3.19,96.55A124.37,124.37,0,1,0,152.26,3.19,124.37,124.37,0,0,0,3.19,96.55Zm227.58,52.29A109.14,109.14,0,1,1,148.84,18,109.15,109.15,0,0,1,230.77,148.84Z"/><path class="cls-3" d="M130.36,134.83a45.2,45.2,0,0,0,4.62-2.92,22.17,22.17,0,0,0,4-4.14,17.94,17.94,0,0,0,2.43-4.9,18.16,18.16,0,0,0,.87-5.41,17.49,17.49,0,0,0-.91-5.41,19.59,19.59,0,0,0-2.6-5.09,19,19,0,0,0-3.86-3.89,18,18,0,0,0-25.71,4.65c-5.86,9-2.94,21.7,9.07,27v10.6c-1,.07-1.78.16-2.55.16H83.77a11.49,11.49,0,0,1-1.44-.05,1.81,1.81,0,0,1-1.81-1.86c0-.56,0-1.12,0-1.68V92.63H168c.05.84.14,1.61.14,2.38q0,23.64,0,47.28c0,2.81-.38,3.19-3.17,3.21-4,0-8,0-12,0-.55,0-1.1-.09-1.8-.15-.17-.79-.31-1.57-.51-2.33a5.74,5.74,0,0,0-6.29-4.71,7,7,0,0,1-3.65-.68A12.18,12.18,0,0,0,137,137c-.54-.07-1.17.21-1.64,0C133.76,136.4,132.22,135.66,130.36,134.83Z"/><path class="cls-3" d="M120.87,160.23V133.52a11,11,0,0,1,.11-2.15,3.78,3.78,0,0,1,3.39-2.92,3.49,3.49,0,0,1,3.51,2.68,8.91,8.91,0,0,1,.23,2.13c0,1.76,0,3.52,0,5.28a.58.58,0,0,0,.07.27c1.31-.21,2.66-.78,3.83-.51s2,1.38,3,2.2c3.08-1.72,4.64-1.4,6.57,1.63a14.11,14.11,0,0,1,1.32-.85c2.57-1.24,5,.07,5.13,2.94.15,2.55,0,5.11,0,7.67,0,4.47,0,9,0,13.42,0,3.75-1.3,5-5.07,5-6.47,0-13,0-19.42,0a6.19,6.19,0,0,1-4.87-2.06c-2.58-2.73-5.29-5.33-7.94-8a8.72,8.72,0,0,1-1.09-1.26c-1.2-1.79-1.1-3.52.24-4.79a3.67,3.67,0,0,1,5,.18c1.19,1.07,2.27,2.25,3.4,3.38C119.06,158.5,119.75,159.14,120.87,160.23Z"/><path class="cls-3" d="M168.23,89.68H80.81a11.2,11.2,0,0,1-.29-1.61c0-2.4,0-4.8,0-7.2,0-2,.37-2.32,2.41-2.42.56,0,1.12,0,1.68,0H164c4.29,0,4.3,0,4.29,4.22C168.31,85,168.26,87.25,168.23,89.68Zm-26.94-4.29c5.66,0,11.33,0,17,0,1,0,2.22.28,2.39-1.26.09-.91-.58-1.29-2.39-1.3q-16.62,0-33.26,0c-1,0-2.22-.26-2.5,1.18-.19,1,.53,1.37,2.5,1.38C130.44,85.4,135.87,85.39,141.29,85.39Zm-33.72-2.61c-.82,0-1.28,0-1.58.14-.49.28-1.13.69-1.22,1.15-.18.84.52,1.21,1.3,1.3.31,0,.63,0,.94,0,.93,0,1.91-.18,1.75-1.32C108.69,83.52,107.87,83.07,107.57,82.78Zm-9.31,2.65c.38-.07,1,0,1.28-.27a1.77,1.77,0,0,0,.63-1.34c-.27-1.1-1.29-1-2.15-1S96.3,83,96.22,84c0,.41.42,1,.79,1.27S97.77,85.37,98.26,85.43Zm-8.48,0c.35-.06,1,0,1.24-.23s.84-1.08.72-1.48c-.32-1-1.35-.9-2.2-.87s-1.73.1-1.76,1.11c0,.45.56,1,1,1.35C88.92,85.47,89.35,85.38,89.78,85.42Z"/><path class="cls-3" d="M119.71,127.9c-.48,1.22-.88,2.24-1.28,3.24-4.81-.93-9.87-7.78-9.29-14.69A15.48,15.48,0,0,1,124,102a15.64,15.64,0,0,1,15.62,12.3c1.36,7.21-2.56,14.87-8.9,17-.87-3.4-3.08-5.38-7.13-5.55a17.89,17.89,0,0,1,1.6-1.25c2.68-1.59,5.37-3.15,8.06-4.73a13.53,13.53,0,0,0,1.78-1.2,1.17,1.17,0,0,0,0-1.88,6.17,6.17,0,0,0-1.17-.83l-13.15-7.89a6.23,6.23,0,0,0-1-.56,1.29,1.29,0,0,0-1.93,1.08,5.34,5.34,0,0,0-.06,1.2c0,5.19,0,10.39,0,15.59C117.68,126.6,117.88,127.76,119.71,127.9Z"/><path class="cls-3" d="M120.4,110.88l11,6.59c-3.65,2.47-7.14,4.51-11,6.61Z"/></g></g></svg>