<svg xmlns="http://www.w3.org/2000/svg" xmlns:xlink="http://www.w3.org/1999/xlink" viewBox="0 0 248.81 248.81"><defs><style>.cls-1{fill:#1f4383;}.cls-2{fill:#fff;}.cls-3{fill:url(#linear-gradient);}</style><linearGradient id="linear-gradient" x1="885.46" y1="684.09" x2="1134.27" y2="684.09" gradientTransform="translate(-516.47 1162.23) rotate(-92.42)" gradientUnits="userSpaceOnUse"><stop offset="0" stop-color="#dbf1fb" stop-opacity="0"/><stop offset="0" stop-color="#d7ecf9" stop-opacity="0.03"/><stop offset="0.27" stop-color="#afd4ed" stop-opacity="0.27"/><stop offset="0.89" stop-color="#4c97d0" stop-opacity="0.88"/><stop offset="1" stop-color="#398ccb"/></linearGradient></defs><g id="Layer_2" data-name="Layer 2"><g id="Layer_1-2" data-name="Layer 1"><circle class="cls-1" cx="124.4" cy="124.4" r="89.12"/><path class="cls-2" d="M84.88,158.84c.68-3.23,1.33-6.48,2.06-9.71q2.19-9.81,4.48-19.62a42.93,42.93,0,0,1,2.2-7.56c2.85-6.45,11.63-8.92,17.44-4.92A11,11,0,0,0,118,119.1c4.83-.15,9.67-.1,14.51,0a7.34,7.34,0,0,0,4.56-1.45,12.29,12.29,0,0,1,15.69.66,11.42,11.42,0,0,1,3.73,6.16q3.53,15.12,6.91,30.26a15.59,15.59,0,0,1,.18,7.47,6.71,6.71,0,0,1-5.54,5.31,7.27,7.27,0,0,1-7.76-2.86c-3.59-5-7.07-10.07-10.6-15.11-1-1.47-2-3-3.12-4.4a2.12,2.12,0,0,0-1.43-.79q-10.56-.08-21.12,0a2.36,2.36,0,0,0-1.58,1c-4.53,6.38-9,12.82-13.51,19.21a7.61,7.61,0,0,1-8.4,2.88,7.25,7.25,0,0,1-5.3-6.68c0-.6,0-1.2,0-1.8Zm23.51-30.51c0-1.42,0-2.65,0-3.88,0-.94-.38-1.39-1.37-1.35q-2,.06-4,0c-.89,0-1.36.3-1.34,1.24s0,2,0,3c0,.7-.22,1-1,1-1,0-1.92,0-2.88,0s-1.41.33-1.38,1.34c0,1.35,0,2.72,0,4.07,0,.92.38,1.33,1.28,1.32s2,0,3,0c.67,0,.94.23.92.9,0,1,0,2,0,3s.37,1.33,1.29,1.32c1.35,0,2.71,0,4.07,0,.93,0,1.3-.45,1.3-1.32s0-1.92,0-2.88c0-.79.28-1.06,1-1,1,.05,1.92,0,2.88,0s1.31-.41,1.29-1.32c0-1.31,0-2.63,0-3.95,0-1.11-.46-1.5-1.51-1.46S109.74,128.33,108.39,128.33Zm30.38,10.29a3.43,3.43,0,0,0,3.38,3.44,3.56,3.56,0,0,0,3.45-3.42,3.65,3.65,0,0,0-3.38-3.42A3.51,3.51,0,0,0,138.77,138.62Zm0-14a3.46,3.46,0,0,0,3.43,3.44,3.61,3.61,0,0,0,3.39-3.4,3.5,3.5,0,0,0-3.35-3.41A3.39,3.39,0,0,0,138.77,124.66Zm13.77,7.06a3.39,3.39,0,1,0-3.51,3.36A3.43,3.43,0,0,0,152.54,131.72Zm-20.72,0a3.36,3.36,0,1,0,6.71-.12,3.36,3.36,0,1,0-6.71.12Z"/><path class="cls-2" d="M144.41,90.41l-10.09,4c-3,1.18-6,2.38-9,3.53a2.06,2.06,0,0,1-1.36.06c-6.88-2.67-13.75-5.38-20.63-8.08a5.63,5.63,0,0,1-.57-.41c1.45-.59,2.73-1.14,4-1.65,5.57-2.19,11.14-4.39,16.74-6.52a3.11,3.11,0,0,1,2,0q10.07,3.87,20.07,7.86a1.62,1.62,0,0,1,.82,1.19c.06,4,0,8,0,12,0,.71-.07,1.44-1,1.46s-1-.7-1-1.43v-12Z"/><path class="cls-2" d="M140.43,94V97c0,3.19,0,6.39,0,9.59,0,.82-.21,1.29-1,1.43-4,.69-7.9,1.63-11.89,2a48,48,0,0,1-16.85-1.72c-2-.52-2-.56-2-2.6V93.9c1.48.56,2.8,1,4.11,1.55,3.61,1.42,7.19,2.87,10.82,4.23a2.91,2.91,0,0,0,1.91,0c4.7-1.77,9.38-3.61,14.06-5.44C139.76,94.15,140,94.1,140.43,94Z"/><path class="cls-2" d="M125.58,117.22h-2.09c0-1.6,0-3.14,0-4.69,0-.84.72-.67,1.15-.58s.87.45.89.72C125.63,114.13,125.58,115.61,125.58,117.22Z"/><path class="cls-2" d="M111.91,131.71c0,1.57,0,1.57-1.56,1.57-.8,0-1.6,0-2.4,0s-1.33.38-1.3,1.3,0,2,0,3c0,.67-.23.9-.9.94-2.33.13-2.32.15-2.33-2.14,0-3.4.36-3.08-3.08-3.09h-.12c-2,0-2.54-.78-2-2.69a1,1,0,0,1,.77-.5,25,25,0,0,1,3,0c1.06.06,1.43-.44,1.39-1.43s0-1.84,0-2.76c0-.76.2-1.08,1-1.07,2.72,0,2.2-.13,2.21,2.12,0,3.49-.23,3.12,3.07,3.13h.6C111.91,130.07,111.91,130.07,111.91,131.71Z"/><path class="cls-2" d="M142.11,140.29a1.73,1.73,0,0,1-1.6-1.73A1.79,1.79,0,0,1,142.2,137a1.77,1.77,0,0,1,1.6,1.63A1.73,1.73,0,0,1,142.11,140.29Z"/><path class="cls-2" d="M142.12,126.3a1.62,1.62,0,1,1,1.68-1.55A1.68,1.68,0,0,1,142.12,126.3Z"/><path class="cls-2" d="M150.78,131.71a1.61,1.61,0,0,1-1.73,1.58,1.62,1.62,0,0,1,.19-3.23A1.59,1.59,0,0,1,150.78,131.71Z"/><path class="cls-2" d="M135.11,130.06a1.61,1.61,0,0,1,1.71,1.6,1.64,1.64,0,0,1-1.57,1.63,1.57,1.57,0,0,1-1.69-1.61A1.54,1.54,0,0,1,135.11,130.06Z"/><path class="cls-3" d="M3.19,96.55A124.37,124.37,0,1,0,152.26,3.19,124.37,124.37,0,0,0,3.19,96.55Zm227.58,52.29A109.14,109.14,0,1,1,148.84,18,109.15,109.15,0,0,1,230.77,148.84Z"/></g></g></svg>