<svg xmlns="http://www.w3.org/2000/svg" xmlns:xlink="http://www.w3.org/1999/xlink" viewBox="0 0 248.81 248.81"><defs><style>.cls-1{fill:#1e4383;}.cls-2{fill:#fff;}.cls-3{fill:url(#linear-gradient);}</style><linearGradient id="linear-gradient" x1="526.59" y1="309.75" x2="775.41" y2="309.75" gradientTransform="translate(-157.6 787.89) rotate(-92.42)" gradientUnits="userSpaceOnUse"><stop offset="0" stop-color="#dbf1fb" stop-opacity="0"/><stop offset="0" stop-color="#d7ecf9" stop-opacity="0.03"/><stop offset="0.27" stop-color="#afd4ed" stop-opacity="0.27"/><stop offset="0.89" stop-color="#4c97d0" stop-opacity="0.88"/><stop offset="1" stop-color="#398ccb"/></linearGradient></defs><g id="Layer_2" data-name="Layer 2"><g id="Layer_1-2" data-name="Layer 1"><circle class="cls-1" cx="124.4" cy="124.4" r="89.12"/><path class="cls-2" d="M154.89,78l2.22,2.41-29.05,27.71a11.81,11.81,0,0,1,7,8.54h2.76c7.6,0,15.19,0,22.79,0,2.63,0,2.84.23,2.85,2.91q0,21.1,0,42.23c0,2.67,0,2.67-3,3.34,0,1.18.06,2.45,0,3.71-.08,1.45-.44,1.86-1.9,1.89q-5.64.08-11.28,0c-1.53,0-1.92-.49-2-2.08-.06-1.18,0-2.36,0-3.67H103.83c-.06,1.23-.07,2.41-.17,3.57-.13,1.67-.57,2.16-2.2,2.18q-5.52.08-11,0c-1.66,0-2-.47-2.1-2.22,0-1.11,0-2.22,0-3.17-1-.5-2.12-.71-2.6-1.36a4.59,4.59,0,0,1-.35-2.53q0-20.76,0-41.52c0-.48,0-1,0-1.44a1.65,1.65,0,0,1,1.77-1.82c.64,0,1.28,0,1.92,0h24.72a11.78,11.78,0,0,1,7.25-8.6L109.7,95.31l2.36-2.2,12.48,13.77C134.64,97.26,144.64,87.76,154.89,78Zm-50.26,77.41c3.1-8.13,7.32-11.77,13.68-11.81a13.47,13.47,0,0,1,7.88,2.48A13.9,13.9,0,0,1,132,155.4h9.83c.55-2.76.43-27.52-.16-29.41-15.57,0-31.2,0-46.86,0v29.42Zm23.93,0a10.56,10.56,0,0,0-6.23-7.77c1.69,3.08-1,5.13-1.07,7.77Zm-20.24.07c2.73,0,5,.28,7.34-.21-.4-2.54-2.42-4.51-1.43-7.48A10.48,10.48,0,0,0,108.32,155.51Zm47.39-26.63a2.82,2.82,0,0,0-5.63-.22,2.82,2.82,0,1,0,5.63.22Zm-2.86,26.65a2.82,2.82,0,0,0,2.86-2.86,2.82,2.82,0,1,0-2.86,2.86Z"/><path class="cls-2" d="M124.55,136.15a6.12,6.12,0,1,1-6.16-6A6.07,6.07,0,0,1,124.55,136.15Z"/><path class="cls-3" d="M3.19,96.55A124.37,124.37,0,1,0,152.26,3.19,124.37,124.37,0,0,0,3.19,96.55Zm227.58,52.29A109.14,109.14,0,1,1,148.84,18,109.15,109.15,0,0,1,230.77,148.84Z"/></g></g></svg>