<svg xmlns="http://www.w3.org/2000/svg" xmlns:xlink="http://www.w3.org/1999/xlink" viewBox="0 0 248.81 248.81"><defs><style>.cls-1{fill:#204182;}.cls-2{fill:#fff;}.cls-3{fill:url(#linear-gradient);}</style><linearGradient id="linear-gradient" x1="2422.4" y1="-789.32" x2="2671.21" y2="-789.32" gradientTransform="translate(1020.47 2635.64) rotate(-92.42)" gradientUnits="userSpaceOnUse"><stop offset="0" stop-color="#dbf1fb" stop-opacity="0"/><stop offset="0" stop-color="#d7ecf9" stop-opacity="0.03"/><stop offset="0.27" stop-color="#afd4ed" stop-opacity="0.27"/><stop offset="0.89" stop-color="#4c97d0" stop-opacity="0.88"/><stop offset="1" stop-color="#398ccb"/></linearGradient></defs><g id="Layer_2" data-name="Layer 2"><g id="Layer_1-2" data-name="Layer 1"><circle class="cls-1" cx="124.4" cy="124.4" r="89.12"/><path d="M100.39,120.3l20.13-20.09c-1.49-1.43-3-2.86-4.5-4.38-.7-.72-1.1-.6-1.73.06-1.62,1.7-3.32,3.34-5,5a2.81,2.81,0,0,1-4,.18,2.88,2.88,0,0,1,.08-4c.58-.6,1.18-1.19,1.79-1.77,1.38-1.3,2.78-2.6,4.17-3.89L107,87a9.17,9.17,0,0,1-.76,1c-1.72,1.73-3.41,3.49-5.2,5.13a2.62,2.62,0,0,1-4.39-1.24c-.52-1.54.44-2.49,1.39-3.42,1.76-1.72,3.54-3.41,5.45-5.25L98,77.85c-2.08-2-3.46-2-5.49.09Q85.31,85.2,78,92.42c-2,2-2,3.41,0,5.39q6.36,6.34,12.71,12.71Q95.57,115.4,100.39,120.3Zm28.17,28.15a3.78,3.78,0,0,0,.35.45q11.28,11.28,22.55,22.55a2.86,2.86,0,0,0,4.35,0c2.29-2.28,4.59-4.55,6.88-6.84q4.44-4.44,8.86-8.91a2.59,2.59,0,0,0,.4-3.5c-2.1-2.17-4.36-4.19-6.65-6.36-1.78,1.8-3.68,3.73-5.59,5.64a2.75,2.75,0,0,1-4,.21,2.83,2.83,0,0,1,.12-4.08c1.2-1.23,2.43-2.43,3.64-3.65.72-.72,1.42-1.46,1.93-2l-4.07-4.36c-.57.68-1.07,1.36-1.65,2-1.37,1.4-2.74,2.79-4.17,4.12a2.64,2.64,0,0,1-3.69.07,2.58,2.58,0,0,1-.17-3.84,14.41,14.41,0,0,1,1.08-1.13l5-4.8-5.37-5.37ZM99,153.75c2.51,2.48,5,4.94,7.5,7.42.58.58.87.14,1.25-.24q5.88-5.9,11.77-11.78,7.88-7.89,15.77-15.75l14.91-14.92c1.25-1.25,2.49-2.52,3.64-3.69l-7.9-8Zm-3.8-4c2.33-2.38,4.57-4.7,6.86-7q11-11.08,22.11-22.13,8.61-8.61,17.22-17.19c.55-.55.6-.91,0-1.46-1-.94-2-2-3-3L134.3,95,87.18,142l7.3,7.08C94.65,149.28,94.84,149.42,95.24,149.78Zm70.48-46.69c1.6-1.65,2.9-3,4.22-4.33A8.46,8.46,0,0,0,170.11,87q-4.2-4.35-8.59-8.53a8.36,8.36,0,0,0-11-.19c-1.29,1.13-2.43,2.43-3.72,3.56-.84.74-.79,1.21,0,2q7.47,7.35,14.83,14.82C163,100.07,164.31,101.56,165.72,103.09Zm-81.83,43.5a3.59,3.59,0,0,0-.21.47q-1.68,5-3.34,10c-1.26,3.74-2.51,7.49-3.78,11.23a2.94,2.94,0,0,0,.62,3.21,2.76,2.76,0,0,0,3,.74c.54-.15,1.07-.32,1.6-.49l15.1-5.07,5.34-1.8Zm54.2-55.86,19.71,19.69,3.85-3.53L141.9,87Z"/><path class="cls-2" d="M100.39,120.3q-4.83-4.89-9.68-9.78Q84.37,104.16,78,97.81c-2-2-2-3.42,0-5.39q7.27-7.2,14.49-14.48c2-2,3.41-2.11,5.49-.09l5.52,5.39c-1.91,1.84-3.69,3.53-5.45,5.25-1,.93-1.91,1.88-1.39,3.42a2.62,2.62,0,0,0,4.39,1.24c1.79-1.64,3.48-3.4,5.2-5.13a9.17,9.17,0,0,0,.76-1l4.33,4.38C110,92.7,108.58,94,107.2,95.3c-.61.58-1.21,1.17-1.79,1.77a2.88,2.88,0,0,0-.08,4,2.81,2.81,0,0,0,4-.18c1.66-1.67,3.36-3.31,5-5,.63-.66,1-.78,1.73-.06,1.46,1.52,3,3,4.5,4.38Z"/><path class="cls-2" d="M128.56,148.45l19.82-19.84,5.37,5.37-5,4.8a14.41,14.41,0,0,0-1.08,1.13,2.58,2.58,0,0,0,.17,3.84,2.64,2.64,0,0,0,3.69-.07c1.43-1.33,2.8-2.72,4.17-4.12.58-.6,1.08-1.28,1.65-2l4.07,4.36c-.51.52-1.21,1.26-1.93,2-1.21,1.22-2.44,2.42-3.64,3.65a2.83,2.83,0,0,0-.12,4.08,2.75,2.75,0,0,0,4-.21c1.91-1.91,3.81-3.84,5.59-5.64,2.29,2.17,4.55,4.19,6.65,6.36a2.59,2.59,0,0,1-.4,3.5q-4.41,4.47-8.86,8.91c-2.29,2.29-4.59,4.56-6.88,6.84a2.86,2.86,0,0,1-4.35,0q-11.28-11.25-22.55-22.55A3.78,3.78,0,0,1,128.56,148.45Z"/><path class="cls-2" d="M99,153.75,146,106.8l7.9,8c-1.15,1.17-2.39,2.44-3.64,3.69L135.33,133.4q-7.89,7.88-15.77,15.75-5.9,5.88-11.77,11.78c-.38.38-.67.82-1.25.24C104.05,158.69,101.55,156.23,99,153.75Z"/><path class="cls-2" d="M95.24,149.78c-.4-.36-.59-.5-.76-.67L87.18,142,134.3,95l4.16,4.09c1,1,1.94,2,3,3,.6.55.55.91,0,1.46q-8.62,8.58-17.22,17.19-11.05,11.06-22.11,22.13C99.81,145.08,97.57,147.4,95.24,149.78Z"/><path class="cls-2" d="M165.72,103.09c-1.41-1.53-2.68-3-4.06-4.4q-7.38-7.45-14.83-14.82c-.79-.78-.84-1.25,0-2,1.29-1.13,2.43-2.43,3.72-3.56a8.36,8.36,0,0,1,11,.19q4.38,4.17,8.59,8.53a8.46,8.46,0,0,1-.17,11.72C168.62,100.1,167.32,101.44,165.72,103.09Z"/><path class="cls-2" d="M83.89,146.59l18.29,18.28-5.34,1.8-15.1,5.07c-.53.17-1.06.34-1.6.49a2.76,2.76,0,0,1-3-.74,2.94,2.94,0,0,1-.62-3.21c1.27-3.74,2.52-7.49,3.78-11.23q1.66-5,3.34-10A3.59,3.59,0,0,1,83.89,146.59Z"/><path class="cls-2" d="M138.09,90.73,141.9,87l19.75,19.85-3.85,3.53Z"/><path class="cls-3" d="M3.19,96.55A124.37,124.37,0,1,0,152.26,3.19,124.37,124.37,0,0,0,3.19,96.55Zm227.58,52.29A109.14,109.14,0,1,1,148.84,18,109.15,109.15,0,0,1,230.77,148.84Z"/></g></g></svg>